<svg xmlns="http://www.w3.org/2000/svg" viewBox="0 0 1080 1080"><g fill="#0f172a"><path d="M888 379c-30-8-75-50-110-76L639 193c-34-27-75-54-89-79-24-40-2-99 43-111 56-13 77 23 134 63l192 151c29 23 62 47 62 87 3 49-48 88-91 76zm-487 698c-30-8-74-50-110-76L152 891c-34-27-74-54-89-79-24-40-2-99 43-111 56-13 78 23 134 63l193 151c28 23 61 47 61 87 3 49-48 88-91 76zm84-964c-14 25-53 51-87 79L246 312c-35 26-71 60-99 67-60 20-117-52-84-109 15-26 43-44 84-77L352 31c25-19 53-38 85-29 47 10 72 70 49 109z"/><path d="M401 620c-30-8-74-50-110-77L152 435c-34-27-74-54-89-79-24-40-2-99 43-111 56-13 78 22 134 63l193 151c28 23 61 47 61 87 3 49-48 88-91 76zm149 347c13-25 53-51 86-79l153-120c35-26 71-60 98-67 61-20 117 52 85 109-15 26-44 44-84 77l-205 162c-25 19-54 38-86 29-47-10-71-70-48-109z"/><path d="M633 460c30 8 75 50 110 76l140 110c34 27 74 54 88 79 25 40 2 99-43 111-56 13-77-22-133-63L602 622c-28-23-62-47-62-87-3-49 48-88 91-76z"/></g></svg>