<?xml version="1.0" encoding="UTF-8"?><svg id="katman_1" xmlns="http://www.w3.org/2000/svg" width="800" height="200" xmlns:xlink="http://www.w3.org/1999/xlink" viewBox="0 0 800 200"><defs><filter id="drop-shadow-1" x="-44.16" y="-18.51" width="245" height="247" filterUnits="userSpaceOnUse"><feOffset dx="0" dy="8"/><feGaussianBlur result="blur" stdDeviation="16"/><feFlood flood-color="#000" flood-opacity=".2"/><feComposite in2="blur" operator="in"/><feComposite in="SourceGraphic"/></filter><filter id="drop-shadow-2" x="25.84" y="45.49" width="105" height="119" filterUnits="userSpaceOnUse"><feOffset dx="0" dy="8"/><feGaussianBlur result="blur-2" stdDeviation="4"/><feFlood flood-color="#000" flood-opacity=".2"/><feComposite in2="blur-2" operator="in"/><feComposite in="SourceGraphic"/></filter></defs><text transform="translate(163.91 142.06)" fill="#0f172a" font-family="Inter-Bold, Inter" font-size="120.63" font-variation-settings="&apos;opsz&apos; 14, &apos;wght&apos; 700" font-weight="700"><tspan x="0" y="0">SudoMock</tspan></text><path d="M146.49,109.17l-50.71,56.07c-7.77,8.59-20.91,9.14-29.35,1.23L11.37,114.84c-8.44-7.91-8.98-21.29-1.21-29.88L60.87,28.89c7.77-8.59,20.91-9.14,29.35-1.23l55.07,51.63c8.44,7.91,8.98,21.29,1.21,29.88Z" fill="#e5e5e5" filter="url(#drop-shadow-1)"/><g filter="url(#drop-shadow-2)"><path d="M110.46,83.1c-2.61-.7-6.47-4.33-9.55-6.62-3.8-2.98-8.4-6.6-12.05-9.46-2.96-2.4-6.46-4.74-7.69-6.92-2.12-3.41-.18-8.54,3.72-9.55,4.84-1.13,6.71,1.91,11.59,5.41,5.19,4.08,12.55,9.85,16.7,13.12,2.46,1.94,5.36,4.07,5.35,7.52.25,4.22-4.16,7.65-7.92,6.55l-.16-.04Z" fill="#0f172a"/><path d="M68.26,143.61c-2.61-.7-6.47-4.33-9.55-6.62-3.8-2.98-8.4-6.6-12.05-9.46-2.96-2.4-6.46-4.74-7.69-6.92-2.12-3.41-.18-8.54,3.72-9.55,4.84-1.13,6.71,1.91,11.59,5.41,5.19,4.08,12.55,9.85,16.7,13.12,2.46,1.94,5.36,4.07,5.35,7.52.25,4.22-4.16,7.65-7.92,6.55l-.16-.04Z" fill="#0f172a"/><path d="M75.52,60.06c-1.17,2.14-4.6,4.43-7.49,6.79-4.2,3.31-9.17,7.23-13.24,10.44-3.03,2.31-6.13,5.17-8.51,5.83-5.25,1.68-10.16-4.56-7.35-9.44,1.31-2.3,3.76-3.86,7.29-6.71,5.77-4.54,12.97-10.25,17.77-14,2.15-1.69,4.63-3.28,7.4-2.53,4.07.83,6.21,6.04,4.21,9.46l-.08.15Z" fill="#0f172a"/><path d="M68.26,103.99c-2.61-.7-6.47-4.33-9.55-6.62-3.8-2.98-8.4-6.6-12.05-9.46-2.96-2.4-6.46-4.74-7.69-6.92-2.12-3.41-.18-8.54,3.72-9.55,4.84-1.13,6.71,1.91,11.59,5.41,5.19,4.08,12.55,9.85,16.7,13.12,2.46,1.94,5.36,4.07,5.35,7.52.25,4.22-4.16,7.65-7.92,6.55l-.16-.04Z" fill="#0f172a"/><path d="M81.13,134.06c1.17-2.14,4.6-4.43,7.49-6.79,4.2-3.31,9.17-7.23,13.24-10.44,3.03-2.31,6.13-5.17,8.51-5.83,5.25-1.68,10.16,4.56,7.35,9.44-1.31,2.3-3.76,3.86-7.29,6.71-5.77,4.54-12.97,10.25-17.77,14-2.15,1.69-4.63,3.28-7.4,2.53-4.07-.83-6.21-6.04-4.21-9.46l.08-.15Z" fill="#0f172a"/><path d="M88.38,90.13c2.61.7,6.47,4.33,9.55,6.62,3.8,2.98,8.4,6.6,12.05,9.46,2.96,2.4,6.46,4.74,7.69,6.92,2.12,3.41.18,8.54-3.72,9.55-4.84,1.13-6.71-1.91-11.59-5.41-5.19-4.08-12.55-9.85-16.7-13.12-2.46-1.94-5.36-4.07-5.35-7.52-.25-4.22,4.16-7.65,7.92-6.55l.16.04Z" fill="#0f172a"/></g></svg>